<mxfile host="app.diagrams.net" modified="2023-05-16T07:19:05.017Z" agent="Mozilla/5.0 (Windows NT 10.0; Win64; x64) AppleWebKit/537.36 (KHTML, like Gecko) Chrome/113.0.0.0 Safari/537.36 Edg/113.0.1774.42" etag="zEfrLdJkcA4S8oJgz32x" version="21.3.2" type="github" pages="2">
  <diagram id="l1b3AVRnxOqJ_atooooH" name="Framebuffer">
    <mxGraphModel dx="1721" dy="1124" grid="1" gridSize="10" guides="1" tooltips="1" connect="1" arrows="1" fold="1" page="1" pageScale="1" pageWidth="827" pageHeight="1169" math="0" shadow="0">
      <root>
        <mxCell id="0" />
        <mxCell id="1" parent="0" />
        <mxCell id="Rt0cHN8rqhmGrVOj0ScF-9" style="edgeStyle=orthogonalEdgeStyle;rounded=0;orthogonalLoop=1;jettySize=auto;html=1;exitX=0.5;exitY=1;exitDx=0;exitDy=0;entryX=0.5;entryY=0;entryDx=0;entryDy=0;" parent="1" source="Rt0cHN8rqhmGrVOj0ScF-1" target="Rt0cHN8rqhmGrVOj0ScF-4" edge="1">
          <mxGeometry relative="1" as="geometry" />
        </mxCell>
        <mxCell id="Rt0cHN8rqhmGrVOj0ScF-1" value="vkAllocateMemory" style="rounded=0;whiteSpace=wrap;html=1;fillColor=#ffe6cc;strokeColor=#d79b00;" parent="1" vertex="1">
          <mxGeometry x="650" y="30" width="120" height="60" as="geometry" />
        </mxCell>
        <mxCell id="Rt0cHN8rqhmGrVOj0ScF-8" style="edgeStyle=orthogonalEdgeStyle;rounded=0;orthogonalLoop=1;jettySize=auto;html=1;exitX=0.5;exitY=1;exitDx=0;exitDy=0;entryX=0.5;entryY=0;entryDx=0;entryDy=0;" parent="1" source="Rt0cHN8rqhmGrVOj0ScF-2" target="Rt0cHN8rqhmGrVOj0ScF-3" edge="1">
          <mxGeometry relative="1" as="geometry" />
        </mxCell>
        <mxCell id="Rt0cHN8rqhmGrVOj0ScF-2" value="vkCreateImage" style="rounded=0;whiteSpace=wrap;html=1;fillColor=#ffe6cc;strokeColor=#d79b00;" parent="1" vertex="1">
          <mxGeometry x="450" y="30" width="120" height="60" as="geometry" />
        </mxCell>
        <mxCell id="Rt0cHN8rqhmGrVOj0ScF-10" style="edgeStyle=orthogonalEdgeStyle;rounded=0;orthogonalLoop=1;jettySize=auto;html=1;exitX=0.75;exitY=1;exitDx=0;exitDy=0;entryX=0.25;entryY=0;entryDx=0;entryDy=0;" parent="1" source="Rt0cHN8rqhmGrVOj0ScF-3" target="Rt0cHN8rqhmGrVOj0ScF-6" edge="1">
          <mxGeometry relative="1" as="geometry" />
        </mxCell>
        <mxCell id="Rt0cHN8rqhmGrVOj0ScF-14" style="edgeStyle=orthogonalEdgeStyle;rounded=0;orthogonalLoop=1;jettySize=auto;html=1;exitX=0.25;exitY=1;exitDx=0;exitDy=0;entryX=0.5;entryY=0;entryDx=0;entryDy=0;" parent="1" source="Rt0cHN8rqhmGrVOj0ScF-3" target="Rt0cHN8rqhmGrVOj0ScF-12" edge="1">
          <mxGeometry relative="1" as="geometry" />
        </mxCell>
        <mxCell id="Rt0cHN8rqhmGrVOj0ScF-3" value="VkImage" style="rounded=1;whiteSpace=wrap;html=1;fillColor=#d5e8d4;strokeColor=#82b366;" parent="1" vertex="1">
          <mxGeometry x="450" y="140" width="120" height="60" as="geometry" />
        </mxCell>
        <mxCell id="Rt0cHN8rqhmGrVOj0ScF-11" style="edgeStyle=orthogonalEdgeStyle;rounded=0;orthogonalLoop=1;jettySize=auto;html=1;exitX=0.5;exitY=1;exitDx=0;exitDy=0;entryX=0.75;entryY=0;entryDx=0;entryDy=0;" parent="1" source="Rt0cHN8rqhmGrVOj0ScF-4" target="Rt0cHN8rqhmGrVOj0ScF-6" edge="1">
          <mxGeometry relative="1" as="geometry" />
        </mxCell>
        <mxCell id="Rt0cHN8rqhmGrVOj0ScF-4" value="VkDeviceMemory" style="rounded=1;whiteSpace=wrap;html=1;fillColor=#d5e8d4;strokeColor=#82b366;" parent="1" vertex="1">
          <mxGeometry x="650" y="140" width="120" height="60" as="geometry" />
        </mxCell>
        <mxCell id="-dkSd6KjFcrFEzILDUVV-15" style="edgeStyle=orthogonalEdgeStyle;rounded=0;orthogonalLoop=1;jettySize=auto;html=1;exitX=0.5;exitY=1;exitDx=0;exitDy=0;entryX=0.363;entryY=0.001;entryDx=0;entryDy=0;entryPerimeter=0;" parent="1" source="Rt0cHN8rqhmGrVOj0ScF-5" target="-dkSd6KjFcrFEzILDUVV-13" edge="1">
          <mxGeometry relative="1" as="geometry" />
        </mxCell>
        <mxCell id="Rt0cHN8rqhmGrVOj0ScF-5" value="VkFramebuffer" style="rounded=1;whiteSpace=wrap;html=1;fillColor=#d5e8d4;strokeColor=#82b366;" parent="1" vertex="1">
          <mxGeometry x="354" y="660" width="120" height="60" as="geometry" />
        </mxCell>
        <mxCell id="Rt0cHN8rqhmGrVOj0ScF-6" value="vkBindImageMemory" style="rounded=0;whiteSpace=wrap;html=1;fillColor=#ffe6cc;strokeColor=#d79b00;" parent="1" vertex="1">
          <mxGeometry x="540" y="300" width="120" height="60" as="geometry" />
        </mxCell>
        <mxCell id="Rt0cHN8rqhmGrVOj0ScF-17" style="edgeStyle=orthogonalEdgeStyle;rounded=0;orthogonalLoop=1;jettySize=auto;html=1;exitX=0.5;exitY=1;exitDx=0;exitDy=0;entryX=0.5;entryY=0;entryDx=0;entryDy=0;" parent="1" source="Rt0cHN8rqhmGrVOj0ScF-12" target="Rt0cHN8rqhmGrVOj0ScF-15" edge="1">
          <mxGeometry relative="1" as="geometry" />
        </mxCell>
        <mxCell id="Rt0cHN8rqhmGrVOj0ScF-12" value="vkCreateImageView" style="rounded=0;whiteSpace=wrap;html=1;fillColor=#ffe6cc;strokeColor=#d79b00;" parent="1" vertex="1">
          <mxGeometry x="320" y="300" width="120" height="60" as="geometry" />
        </mxCell>
        <mxCell id="-dkSd6KjFcrFEzILDUVV-2" value="" style="edgeStyle=orthogonalEdgeStyle;rounded=0;orthogonalLoop=1;jettySize=auto;html=1;entryX=0.384;entryY=0.012;entryDx=0;entryDy=0;entryPerimeter=0;" parent="1" source="Rt0cHN8rqhmGrVOj0ScF-15" target="-dkSd6KjFcrFEzILDUVV-1" edge="1">
          <mxGeometry relative="1" as="geometry" />
        </mxCell>
        <mxCell id="Rt0cHN8rqhmGrVOj0ScF-15" value="VkImageView" style="rounded=1;whiteSpace=wrap;html=1;fillColor=#d5e8d4;strokeColor=#82b366;" parent="1" vertex="1">
          <mxGeometry x="320" y="400" width="120" height="60" as="geometry" />
        </mxCell>
        <mxCell id="-dkSd6KjFcrFEzILDUVV-9" value="" style="edgeStyle=orthogonalEdgeStyle;rounded=0;orthogonalLoop=1;jettySize=auto;html=1;" parent="1" source="-dkSd6KjFcrFEzILDUVV-1" target="Rt0cHN8rqhmGrVOj0ScF-5" edge="1">
          <mxGeometry relative="1" as="geometry" />
        </mxCell>
        <mxCell id="-dkSd6KjFcrFEzILDUVV-1" value="vkCreateFramebuffer" style="rounded=0;whiteSpace=wrap;html=1;fillColor=#ffe6cc;strokeColor=#d79b00;" parent="1" vertex="1">
          <mxGeometry x="354" y="555" width="120" height="60" as="geometry" />
        </mxCell>
        <mxCell id="-dkSd6KjFcrFEzILDUVV-5" value="" style="edgeStyle=orthogonalEdgeStyle;rounded=0;orthogonalLoop=1;jettySize=auto;html=1;" parent="1" source="-dkSd6KjFcrFEzILDUVV-3" target="-dkSd6KjFcrFEzILDUVV-4" edge="1">
          <mxGeometry relative="1" as="geometry" />
        </mxCell>
        <mxCell id="-dkSd6KjFcrFEzILDUVV-3" value="vkCreateRenderPass" style="rounded=0;whiteSpace=wrap;html=1;fillColor=#ffe6cc;strokeColor=#d79b00;" parent="1" vertex="1">
          <mxGeometry x="540" y="390" width="120" height="60" as="geometry" />
        </mxCell>
        <mxCell id="-dkSd6KjFcrFEzILDUVV-8" style="edgeStyle=orthogonalEdgeStyle;rounded=0;orthogonalLoop=1;jettySize=auto;html=1;exitX=0;exitY=0.5;exitDx=0;exitDy=0;entryX=0.702;entryY=-0.026;entryDx=0;entryDy=0;entryPerimeter=0;" parent="1" source="-dkSd6KjFcrFEzILDUVV-4" target="-dkSd6KjFcrFEzILDUVV-1" edge="1">
          <mxGeometry relative="1" as="geometry">
            <Array as="points">
              <mxPoint x="438" y="510" />
            </Array>
          </mxGeometry>
        </mxCell>
        <mxCell id="-dkSd6KjFcrFEzILDUVV-12" style="edgeStyle=orthogonalEdgeStyle;rounded=0;orthogonalLoop=1;jettySize=auto;html=1;exitX=0.5;exitY=1;exitDx=0;exitDy=0;entryX=0.75;entryY=0;entryDx=0;entryDy=0;" parent="1" source="-dkSd6KjFcrFEzILDUVV-4" target="-dkSd6KjFcrFEzILDUVV-13" edge="1">
          <mxGeometry relative="1" as="geometry" />
        </mxCell>
        <mxCell id="-dkSd6KjFcrFEzILDUVV-4" value="VkRenderPass" style="rounded=1;whiteSpace=wrap;html=1;fillColor=#d5e8d4;strokeColor=#82b366;" parent="1" vertex="1">
          <mxGeometry x="540" y="480" width="120" height="60" as="geometry" />
        </mxCell>
        <mxCell id="-dkSd6KjFcrFEzILDUVV-13" value="vkCmdBeginRenderPass" style="rounded=0;whiteSpace=wrap;html=1;fillColor=#ffe6cc;strokeColor=#d79b00;" parent="1" vertex="1">
          <mxGeometry x="440" y="790" width="180" height="60" as="geometry" />
        </mxCell>
        <mxCell id="-dkSd6KjFcrFEzILDUVV-16" value="Vulkan Command" style="rounded=0;whiteSpace=wrap;html=1;fillColor=#ffe6cc;strokeColor=#d79b00;" parent="1" vertex="1">
          <mxGeometry x="30" y="30" width="120" height="60" as="geometry" />
        </mxCell>
        <mxCell id="-dkSd6KjFcrFEzILDUVV-17" value="Vulkan Object" style="rounded=1;whiteSpace=wrap;html=1;fillColor=#d5e8d4;strokeColor=#82b366;" parent="1" vertex="1">
          <mxGeometry x="30" y="110" width="120" height="60" as="geometry" />
        </mxCell>
      </root>
    </mxGraphModel>
  </diagram>
  <diagram name="Texture" id="Y8sEjbH78i4kVw57Jwnv">
    <mxGraphModel dx="1721" dy="1124" grid="1" gridSize="10" guides="1" tooltips="1" connect="1" arrows="1" fold="1" page="1" pageScale="1" pageWidth="827" pageHeight="1169" math="0" shadow="0">
      <root>
        <mxCell id="Ac81cKyPI2wEUSR9HQ3j-0" />
        <mxCell id="Ac81cKyPI2wEUSR9HQ3j-1" parent="Ac81cKyPI2wEUSR9HQ3j-0" />
        <mxCell id="fDy1o5s9xfWsFGP3kAFm-41" value="" style="rounded=1;whiteSpace=wrap;html=1;fillColor=#d5e8d4;strokeColor=#82b366;" vertex="1" parent="Ac81cKyPI2wEUSR9HQ3j-1">
          <mxGeometry x="550" y="704" width="240" height="410" as="geometry" />
        </mxCell>
        <mxCell id="Ac81cKyPI2wEUSR9HQ3j-2" style="edgeStyle=orthogonalEdgeStyle;rounded=0;orthogonalLoop=1;jettySize=auto;html=1;exitX=0.5;exitY=1;exitDx=0;exitDy=0;entryX=0.5;entryY=0;entryDx=0;entryDy=0;" parent="Ac81cKyPI2wEUSR9HQ3j-1" source="Ac81cKyPI2wEUSR9HQ3j-3" target="Ac81cKyPI2wEUSR9HQ3j-10" edge="1">
          <mxGeometry relative="1" as="geometry" />
        </mxCell>
        <mxCell id="Ac81cKyPI2wEUSR9HQ3j-3" value="vkAllocateMemory" style="rounded=0;whiteSpace=wrap;html=1;fillColor=#ffe6cc;strokeColor=#d79b00;" parent="Ac81cKyPI2wEUSR9HQ3j-1" vertex="1">
          <mxGeometry x="650" y="30" width="120" height="60" as="geometry" />
        </mxCell>
        <mxCell id="Ac81cKyPI2wEUSR9HQ3j-4" style="edgeStyle=orthogonalEdgeStyle;rounded=0;orthogonalLoop=1;jettySize=auto;html=1;exitX=0.5;exitY=1;exitDx=0;exitDy=0;entryX=0.5;entryY=0;entryDx=0;entryDy=0;" parent="Ac81cKyPI2wEUSR9HQ3j-1" source="Ac81cKyPI2wEUSR9HQ3j-5" target="Ac81cKyPI2wEUSR9HQ3j-8" edge="1">
          <mxGeometry relative="1" as="geometry" />
        </mxCell>
        <mxCell id="Ac81cKyPI2wEUSR9HQ3j-5" value="vkCreateImage" style="rounded=0;whiteSpace=wrap;html=1;fillColor=#ffe6cc;strokeColor=#d79b00;" parent="Ac81cKyPI2wEUSR9HQ3j-1" vertex="1">
          <mxGeometry x="450" y="30" width="120" height="60" as="geometry" />
        </mxCell>
        <mxCell id="Ac81cKyPI2wEUSR9HQ3j-6" style="edgeStyle=orthogonalEdgeStyle;rounded=0;orthogonalLoop=1;jettySize=auto;html=1;exitX=0.75;exitY=1;exitDx=0;exitDy=0;entryX=0.25;entryY=0;entryDx=0;entryDy=0;" parent="Ac81cKyPI2wEUSR9HQ3j-1" source="Ac81cKyPI2wEUSR9HQ3j-8" target="Ac81cKyPI2wEUSR9HQ3j-13" edge="1">
          <mxGeometry relative="1" as="geometry" />
        </mxCell>
        <mxCell id="Ac81cKyPI2wEUSR9HQ3j-7" style="edgeStyle=orthogonalEdgeStyle;rounded=0;orthogonalLoop=1;jettySize=auto;html=1;exitX=0.25;exitY=1;exitDx=0;exitDy=0;entryX=0.5;entryY=0;entryDx=0;entryDy=0;" parent="Ac81cKyPI2wEUSR9HQ3j-1" source="Ac81cKyPI2wEUSR9HQ3j-8" target="Ac81cKyPI2wEUSR9HQ3j-15" edge="1">
          <mxGeometry relative="1" as="geometry" />
        </mxCell>
        <mxCell id="Ac81cKyPI2wEUSR9HQ3j-8" value="VkImage" style="rounded=1;whiteSpace=wrap;html=1;fillColor=#d5e8d4;strokeColor=#82b366;" parent="Ac81cKyPI2wEUSR9HQ3j-1" vertex="1">
          <mxGeometry x="450" y="110" width="120" height="60" as="geometry" />
        </mxCell>
        <mxCell id="Ac81cKyPI2wEUSR9HQ3j-9" style="edgeStyle=orthogonalEdgeStyle;rounded=0;orthogonalLoop=1;jettySize=auto;html=1;exitX=0.5;exitY=1;exitDx=0;exitDy=0;entryX=0.75;entryY=0;entryDx=0;entryDy=0;" parent="Ac81cKyPI2wEUSR9HQ3j-1" source="Ac81cKyPI2wEUSR9HQ3j-10" target="Ac81cKyPI2wEUSR9HQ3j-13" edge="1">
          <mxGeometry relative="1" as="geometry" />
        </mxCell>
        <mxCell id="Ac81cKyPI2wEUSR9HQ3j-10" value="VkDeviceMemory" style="rounded=1;whiteSpace=wrap;html=1;fillColor=#d5e8d4;strokeColor=#82b366;" parent="Ac81cKyPI2wEUSR9HQ3j-1" vertex="1">
          <mxGeometry x="650" y="110" width="120" height="60" as="geometry" />
        </mxCell>
        <mxCell id="Ac81cKyPI2wEUSR9HQ3j-13" value="vkBindImageMemory" style="rounded=0;whiteSpace=wrap;html=1;fillColor=#ffe6cc;strokeColor=#d79b00;" parent="Ac81cKyPI2wEUSR9HQ3j-1" vertex="1">
          <mxGeometry x="550" y="210" width="120" height="60" as="geometry" />
        </mxCell>
        <mxCell id="Ac81cKyPI2wEUSR9HQ3j-14" style="edgeStyle=orthogonalEdgeStyle;rounded=0;orthogonalLoop=1;jettySize=auto;html=1;exitX=0.5;exitY=1;exitDx=0;exitDy=0;entryX=0.5;entryY=0;entryDx=0;entryDy=0;" parent="Ac81cKyPI2wEUSR9HQ3j-1" source="Ac81cKyPI2wEUSR9HQ3j-15" target="Ac81cKyPI2wEUSR9HQ3j-17" edge="1">
          <mxGeometry relative="1" as="geometry" />
        </mxCell>
        <mxCell id="Ac81cKyPI2wEUSR9HQ3j-15" value="vkCreateImageView" style="rounded=0;whiteSpace=wrap;html=1;fillColor=#ffe6cc;strokeColor=#d79b00;" parent="Ac81cKyPI2wEUSR9HQ3j-1" vertex="1">
          <mxGeometry x="330" y="210" width="120" height="60" as="geometry" />
        </mxCell>
        <mxCell id="fDy1o5s9xfWsFGP3kAFm-8" style="edgeStyle=orthogonalEdgeStyle;rounded=0;orthogonalLoop=1;jettySize=auto;html=1;exitX=0.25;exitY=1;exitDx=0;exitDy=0;entryX=0.5;entryY=0;entryDx=0;entryDy=0;" edge="1" parent="Ac81cKyPI2wEUSR9HQ3j-1" source="Ac81cKyPI2wEUSR9HQ3j-17" target="fDy1o5s9xfWsFGP3kAFm-1">
          <mxGeometry relative="1" as="geometry" />
        </mxCell>
        <mxCell id="Ac81cKyPI2wEUSR9HQ3j-17" value="VkImageView" style="rounded=1;whiteSpace=wrap;html=1;fillColor=#d5e8d4;strokeColor=#82b366;" parent="Ac81cKyPI2wEUSR9HQ3j-1" vertex="1">
          <mxGeometry x="330" y="300" width="120" height="60" as="geometry" />
        </mxCell>
        <mxCell id="Ac81cKyPI2wEUSR9HQ3j-26" value="Vulkan Command" style="rounded=0;whiteSpace=wrap;html=1;fillColor=#ffe6cc;strokeColor=#d79b00;" parent="Ac81cKyPI2wEUSR9HQ3j-1" vertex="1">
          <mxGeometry x="30" y="30" width="120" height="60" as="geometry" />
        </mxCell>
        <mxCell id="Ac81cKyPI2wEUSR9HQ3j-27" value="Vulkan Object" style="rounded=1;whiteSpace=wrap;html=1;fillColor=#d5e8d4;strokeColor=#82b366;" parent="Ac81cKyPI2wEUSR9HQ3j-1" vertex="1">
          <mxGeometry x="30" y="110" width="120" height="60" as="geometry" />
        </mxCell>
        <mxCell id="fDy1o5s9xfWsFGP3kAFm-31" style="edgeStyle=orthogonalEdgeStyle;rounded=0;orthogonalLoop=1;jettySize=auto;html=1;exitX=0.5;exitY=1;exitDx=0;exitDy=0;entryX=0.5;entryY=0;entryDx=0;entryDy=0;" edge="1" parent="Ac81cKyPI2wEUSR9HQ3j-1" source="fDy1o5s9xfWsFGP3kAFm-1" target="fDy1o5s9xfWsFGP3kAFm-2">
          <mxGeometry relative="1" as="geometry" />
        </mxCell>
        <mxCell id="fDy1o5s9xfWsFGP3kAFm-1" value="VkDescriptorImageInfo" style="rounded=1;whiteSpace=wrap;html=1;fillColor=#d5e8d4;strokeColor=#82b366;" vertex="1" parent="Ac81cKyPI2wEUSR9HQ3j-1">
          <mxGeometry x="100" y="410" width="140" height="60" as="geometry" />
        </mxCell>
        <mxCell id="fDy1o5s9xfWsFGP3kAFm-33" style="edgeStyle=orthogonalEdgeStyle;rounded=0;orthogonalLoop=1;jettySize=auto;html=1;exitX=0.5;exitY=1;exitDx=0;exitDy=0;entryX=0.5;entryY=0;entryDx=0;entryDy=0;" edge="1" parent="Ac81cKyPI2wEUSR9HQ3j-1" source="fDy1o5s9xfWsFGP3kAFm-2" target="fDy1o5s9xfWsFGP3kAFm-5">
          <mxGeometry relative="1" as="geometry" />
        </mxCell>
        <mxCell id="fDy1o5s9xfWsFGP3kAFm-2" value="VkWriteDescriptorSet" style="rounded=1;whiteSpace=wrap;html=1;fillColor=#d5e8d4;strokeColor=#82b366;" vertex="1" parent="Ac81cKyPI2wEUSR9HQ3j-1">
          <mxGeometry x="100" y="490" width="140" height="60" as="geometry" />
        </mxCell>
        <mxCell id="fDy1o5s9xfWsFGP3kAFm-5" value="vkUpdateDescriptorSets" style="rounded=0;whiteSpace=wrap;html=1;fillColor=#ffe6cc;strokeColor=#d79b00;" vertex="1" parent="Ac81cKyPI2wEUSR9HQ3j-1">
          <mxGeometry x="90" y="585" width="160" height="60" as="geometry" />
        </mxCell>
        <mxCell id="fDy1o5s9xfWsFGP3kAFm-16" value="" style="shape=flexArrow;endArrow=classic;html=1;rounded=0;" edge="1" parent="Ac81cKyPI2wEUSR9HQ3j-1">
          <mxGeometry width="50" height="50" relative="1" as="geometry">
            <mxPoint x="134" y="669" as="sourcePoint" />
            <mxPoint x="134" y="1150" as="targetPoint" />
          </mxGeometry>
        </mxCell>
        <mxCell id="fDy1o5s9xfWsFGP3kAFm-17" value="vkBeginCommandBuffer" style="rounded=0;whiteSpace=wrap;html=1;fillColor=#ffe6cc;strokeColor=#d79b00;" vertex="1" parent="Ac81cKyPI2wEUSR9HQ3j-1">
          <mxGeometry x="20" y="689" width="220" height="60" as="geometry" />
        </mxCell>
        <mxCell id="fDy1o5s9xfWsFGP3kAFm-18" value="vkEndCommandBuffer" style="rounded=0;whiteSpace=wrap;html=1;fillColor=#ffe6cc;strokeColor=#d79b00;" vertex="1" parent="Ac81cKyPI2wEUSR9HQ3j-1">
          <mxGeometry x="20" y="1018" width="220" height="60" as="geometry" />
        </mxCell>
        <mxCell id="fDy1o5s9xfWsFGP3kAFm-19" value="vkCmdBeginRenderPass" style="rounded=0;whiteSpace=wrap;html=1;fillColor=#ffe6cc;strokeColor=#d79b00;" vertex="1" parent="Ac81cKyPI2wEUSR9HQ3j-1">
          <mxGeometry x="20" y="769" width="220" height="60" as="geometry" />
        </mxCell>
        <mxCell id="fDy1o5s9xfWsFGP3kAFm-20" value="vkCmdEndRenderPass" style="rounded=0;whiteSpace=wrap;html=1;fillColor=#ffe6cc;strokeColor=#d79b00;" vertex="1" parent="Ac81cKyPI2wEUSR9HQ3j-1">
          <mxGeometry x="20" y="939" width="220" height="60" as="geometry" />
        </mxCell>
        <mxCell id="fDy1o5s9xfWsFGP3kAFm-21" value="" style="shape=flexArrow;endArrow=classic;html=1;rounded=0;fontStyle=1" edge="1" parent="Ac81cKyPI2wEUSR9HQ3j-1">
          <mxGeometry width="50" height="50" relative="1" as="geometry">
            <mxPoint x="674" y="745" as="sourcePoint" />
            <mxPoint x="674" y="1105" as="targetPoint" />
          </mxGeometry>
        </mxCell>
        <mxCell id="fDy1o5s9xfWsFGP3kAFm-22" value="vkBeginCommandBuffer" style="rounded=0;whiteSpace=wrap;html=1;fontStyle=0;fillColor=#ffe6cc;strokeColor=#d79b00;" vertex="1" parent="Ac81cKyPI2wEUSR9HQ3j-1">
          <mxGeometry x="560" y="765" width="220" height="60" as="geometry" />
        </mxCell>
        <mxCell id="fDy1o5s9xfWsFGP3kAFm-23" value="vkEndCommandBuffer" style="rounded=0;whiteSpace=wrap;html=1;fontStyle=0;fillColor=#ffe6cc;strokeColor=#d79b00;" vertex="1" parent="Ac81cKyPI2wEUSR9HQ3j-1">
          <mxGeometry x="560" y="925" width="220" height="60" as="geometry" />
        </mxCell>
        <mxCell id="fDy1o5s9xfWsFGP3kAFm-24" value="vkUpdateDescriptorSets" style="rounded=0;whiteSpace=wrap;html=1;fontStyle=1;fillColor=#ffe6cc;strokeColor=#d79b00;" vertex="1" parent="Ac81cKyPI2wEUSR9HQ3j-1">
          <mxGeometry x="560" y="845" width="220" height="60" as="geometry" />
        </mxCell>
        <mxCell id="fDy1o5s9xfWsFGP3kAFm-26" value="vkUpdateDescriptorSets" style="rounded=0;whiteSpace=wrap;html=1;fillColor=#ffe6cc;strokeColor=#d79b00;fontStyle=1" vertex="1" parent="Ac81cKyPI2wEUSR9HQ3j-1">
          <mxGeometry x="50" y="849" width="160" height="60" as="geometry" />
        </mxCell>
        <mxCell id="fDy1o5s9xfWsFGP3kAFm-29" style="edgeStyle=orthogonalEdgeStyle;rounded=0;orthogonalLoop=1;jettySize=auto;html=1;exitX=0.5;exitY=1;exitDx=0;exitDy=0;entryX=0;entryY=0.5;entryDx=0;entryDy=0;" edge="1" parent="Ac81cKyPI2wEUSR9HQ3j-1" source="fDy1o5s9xfWsFGP3kAFm-27" target="fDy1o5s9xfWsFGP3kAFm-2">
          <mxGeometry relative="1" as="geometry" />
        </mxCell>
        <mxCell id="fDy1o5s9xfWsFGP3kAFm-27" value="VkDescriptorSet" style="rounded=1;whiteSpace=wrap;html=1;fillColor=#d5e8d4;strokeColor=#82b366;" vertex="1" parent="Ac81cKyPI2wEUSR9HQ3j-1">
          <mxGeometry x="20" y="300" width="120" height="60" as="geometry" />
        </mxCell>
        <mxCell id="fDy1o5s9xfWsFGP3kAFm-34" value="" style="shape=flexArrow;endArrow=classic;html=1;rounded=0;" edge="1" parent="Ac81cKyPI2wEUSR9HQ3j-1">
          <mxGeometry width="50" height="50" relative="1" as="geometry">
            <mxPoint x="414" y="669" as="sourcePoint" />
            <mxPoint x="414" y="1150" as="targetPoint" />
          </mxGeometry>
        </mxCell>
        <mxCell id="fDy1o5s9xfWsFGP3kAFm-35" value="vkBeginCommandBuffer" style="rounded=0;whiteSpace=wrap;html=1;" vertex="1" parent="Ac81cKyPI2wEUSR9HQ3j-1">
          <mxGeometry x="300" y="689" width="220" height="60" as="geometry" />
        </mxCell>
        <mxCell id="fDy1o5s9xfWsFGP3kAFm-36" value="vkEndCommandBuffer" style="rounded=0;whiteSpace=wrap;html=1;fillColor=#ffe6cc;strokeColor=#d79b00;" vertex="1" parent="Ac81cKyPI2wEUSR9HQ3j-1">
          <mxGeometry x="300" y="1018" width="220" height="60" as="geometry" />
        </mxCell>
        <mxCell id="fDy1o5s9xfWsFGP3kAFm-37" value="vkCmdBeginRenderPass" style="rounded=0;whiteSpace=wrap;html=1;" vertex="1" parent="Ac81cKyPI2wEUSR9HQ3j-1">
          <mxGeometry x="300" y="769" width="220" height="60" as="geometry" />
        </mxCell>
        <mxCell id="fDy1o5s9xfWsFGP3kAFm-38" value="vkCmdEndRenderPass" style="rounded=0;whiteSpace=wrap;html=1;fillColor=#ffe6cc;strokeColor=#d79b00;" vertex="1" parent="Ac81cKyPI2wEUSR9HQ3j-1">
          <mxGeometry x="300" y="939" width="220" height="60" as="geometry" />
        </mxCell>
        <mxCell id="fDy1o5s9xfWsFGP3kAFm-39" value="vkCmdExecuteCommands" style="rounded=0;whiteSpace=wrap;html=1;" vertex="1" parent="Ac81cKyPI2wEUSR9HQ3j-1">
          <mxGeometry x="330" y="849" width="160" height="60" as="geometry" />
        </mxCell>
        <mxCell id="fDy1o5s9xfWsFGP3kAFm-42" value="vkBeginCommandBuffer" style="rounded=0;whiteSpace=wrap;html=1;fillColor=#ffe6cc;strokeColor=#d79b00;" vertex="1" parent="Ac81cKyPI2wEUSR9HQ3j-1">
          <mxGeometry x="300" y="689" width="220" height="60" as="geometry" />
        </mxCell>
        <mxCell id="fDy1o5s9xfWsFGP3kAFm-43" value="vkCmdBeginRenderPass" style="rounded=0;whiteSpace=wrap;html=1;fillColor=#ffe6cc;strokeColor=#d79b00;" vertex="1" parent="Ac81cKyPI2wEUSR9HQ3j-1">
          <mxGeometry x="300" y="769" width="220" height="60" as="geometry" />
        </mxCell>
        <mxCell id="fDy1o5s9xfWsFGP3kAFm-44" value="vkCmdExecuteCommands" style="rounded=0;whiteSpace=wrap;html=1;fillColor=#ffe6cc;strokeColor=#d79b00;" vertex="1" parent="Ac81cKyPI2wEUSR9HQ3j-1">
          <mxGeometry x="330" y="849" width="160" height="60" as="geometry" />
        </mxCell>
        <mxCell id="fDy1o5s9xfWsFGP3kAFm-47" value="" style="endArrow=classic;html=1;rounded=0;entryX=1;entryY=0.5;entryDx=0;entryDy=0;exitX=0.004;exitY=0.428;exitDx=0;exitDy=0;exitPerimeter=0;" edge="1" parent="Ac81cKyPI2wEUSR9HQ3j-1" source="fDy1o5s9xfWsFGP3kAFm-41" target="fDy1o5s9xfWsFGP3kAFm-44">
          <mxGeometry width="50" height="50" relative="1" as="geometry">
            <mxPoint x="360" y="705" as="sourcePoint" />
            <mxPoint x="-180" y="525" as="targetPoint" />
          </mxGeometry>
        </mxCell>
      </root>
    </mxGraphModel>
  </diagram>
</mxfile>
